<?xml version="1.0" standalone="no"?>
<!DOCTYPE svg PUBLIC "-//W3C//DTD SVG 20010904//EN"
 "http://www.w3.org/TR/2001/REC-SVG-20010904/DTD/svg10.dtd">
<svg version="1.0" xmlns="http://www.w3.org/2000/svg"
 width="2776.000000pt" height="2776.000000pt" viewBox="0 0 2776.000000 2776.000000"
 preserveAspectRatio="xMidYMid meet">
<metadata>
Created by potrace 1.11, written by Peter Selinger 2001-2013
</metadata>
<g transform="translate(0.000000,2776.000000) scale(0.100000,-0.100000)"
fill="#000000" stroke="none">
<path d="M13597 27104 c-1 -1 -78 -5 -172 -9 -93 -4 -188 -8 -210 -10 -189
-13 -236 -16 -275 -20 -25 -3 -76 -7 -115 -10 -38 -3 -86 -7 -105 -10 -19 -2
-66 -7 -105 -10 -38 -4 -83 -9 -100 -11 -16 -2 -55 -6 -85 -9 -77 -8 -132 -15
-150 -20 -8 -2 -40 -6 -71 -10 -31 -3 -65 -7 -75 -9 -11 -2 -44 -7 -74 -10
-30 -4 -66 -8 -80 -11 -26 -4 -43 -6 -205 -31 -214 -32 -864 -158 -1027 -200
-20 -5 -16 -4 -158 -38 -240 -59 -457 -117 -670 -180 -85 -26 -162 -48 -172
-51 -88 -21 -660 -214 -893 -302 -136 -51 -579 -227 -640 -254 -22 -9 -74 -32
-115 -50 -41 -17 -108 -47 -148 -65 -41 -19 -75 -34 -77 -34 -2 0 -43 -18 -92
-41 -474 -220 -919 -452 -1318 -687 -33 -19 -82 -48 -110 -64 -27 -16 -81 -49
-120 -73 -38 -25 -87 -55 -109 -67 -175 -103 -639 -420 -936 -641 -240 -179
-729 -570 -775 -621 -5 -6 -41 -38 -80 -71 -38 -33 -75 -64 -81 -70 -6 -5 -55
-50 -110 -100 -279 -254 -641 -617 -869 -870 -49 -55 -92 -102 -95 -105 -3 -3
-50 -57 -105 -120 -54 -63 -101 -117 -104 -120 -5 -4 -65 -77 -108 -130 -7 -8
-36 -45 -65 -81 -101 -125 -117 -145 -197 -249 -44 -58 -91 -118 -103 -134
-35 -45 -229 -317 -291 -406 -233 -339 -497 -767 -660 -1070 -16 -30 -38 -68
-47 -85 -10 -16 -69 -131 -132 -255 -355 -703 -631 -1398 -851 -2150 -28 -94
-87 -306 -92 -330 -2 -8 -21 -87 -44 -175 -35 -141 -72 -299 -87 -375 -3 -14
-21 -104 -41 -200 -42 -209 -39 -194 -48 -250 -4 -25 -9 -54 -11 -65 -12 -61
-24 -134 -28 -165 -3 -19 -12 -82 -21 -140 -19 -132 -22 -153 -30 -215 -4 -27
-8 -61 -10 -75 -2 -14 -7 -52 -10 -85 -4 -33 -9 -73 -11 -90 -2 -16 -6 -55 -9
-85 -3 -30 -7 -73 -10 -95 -12 -115 -18 -188 -30 -350 -3 -55 -8 -120 -10
-145 -27 -355 -27 -1272 0 -1630 2 -30 7 -95 10 -145 3 -49 7 -115 10 -145 11
-124 16 -187 20 -220 2 -19 6 -62 10 -95 3 -33 7 -76 10 -95 3 -19 7 -55 10
-80 2 -25 9 -81 15 -125 5 -44 12 -96 15 -115 2 -20 11 -80 19 -135 9 -55 18
-118 21 -140 7 -49 23 -141 30 -175 3 -14 8 -43 11 -65 3 -22 19 -105 34 -185
16 -80 31 -156 34 -170 36 -195 153 -682 216 -900 12 -41 23 -82 25 -90 2 -8
4 -15 5 -15 1 0 3 -9 5 -21 16 -80 179 -583 293 -899 70 -194 274 -701 303
-754 4 -9 40 -86 78 -172 132 -296 336 -697 499 -984 47 -82 90 -159 96 -170
6 -11 31 -53 56 -93 25 -40 50 -81 55 -90 99 -169 388 -604 526 -792 94 -129
315 -419 353 -465 14 -16 29 -34 33 -40 16 -20 258 -311 284 -340 14 -16 48
-55 75 -86 129 -146 181 -205 199 -224 11 -11 44 -48 74 -80 224 -246 658
-688 922 -940 122 -116 297 -279 429 -400 209 -191 264 -240 350 -315 52 -46
122 -107 155 -136 101 -88 183 -152 243 -187 208 -122 514 -213 822 -244 145
-15 574 -8 790 12 201 20 253 27 440 61 177 33 187 35 295 60 11 3 31 7 44 10
13 3 51 12 85 20 34 8 68 16 76 18 158 39 382 105 454 133 l50 20 -25 15 c-13
8 -76 44 -139 78 -111 61 -140 77 -214 119 -18 11 -44 25 -57 33 -13 7 -26 15
-29 18 -5 5 -12 9 -89 52 -147 83 -586 370 -841 552 -293 208 -745 550 -806
610 -6 6 -37 34 -68 61 -32 28 -73 64 -91 80 -17 17 -62 57 -99 89 -168 148
-628 600 -811 796 -229 247 -561 636 -715 839 -14 18 -30 38 -35 44 -10 12
-199 265 -240 322 -375 520 -739 1128 -1003 1676 -148 304 -152 314 -342 757
-6 12 -14 32 -19 45 -4 12 -18 45 -29 72 -130 317 -361 971 -422 1200 -5 17
-28 100 -53 185 -24 85 -47 166 -51 180 -20 72 -127 498 -131 520 -5 27 -12
60 -19 88 -29 112 -144 717 -161 847 -2 17 -8 59 -14 95 -5 36 -13 89 -16 119
-4 30 -8 62 -10 72 -4 18 -13 100 -20 169 -2 19 -6 60 -10 90 -3 30 -8 75 -10
100 -2 25 -6 68 -9 95 -42 418 -60 1057 -42 1550 11 284 13 329 31 560 2 22 6
81 9 130 4 50 9 101 11 115 2 14 7 56 11 95 3 38 7 77 9 86 2 10 7 50 10 90 4
40 9 82 11 93 2 10 6 42 9 70 6 50 12 96 21 147 2 15 6 47 9 70 3 24 7 55 10
69 3 14 7 39 9 55 11 70 17 101 21 125 3 14 7 41 10 60 3 19 10 58 15 85 5 28
12 66 15 85 3 19 12 67 20 105 8 39 17 82 20 98 22 111 66 312 101 457 20 80
37 152 39 160 48 209 198 718 299 1015 113 332 231 654 256 697 5 10 10 22 10
28 0 6 9 29 19 53 11 23 36 83 56 132 20 50 45 108 55 130 10 22 32 74 50 115
18 41 46 103 61 138 16 34 29 64 29 66 0 14 267 557 358 726 40 75 69 128 185
340 17 30 55 95 84 144 29 49 53 90 53 92 0 1 35 60 79 131 426 695 866 1293
1371 1863 274 309 616 655 960 970 9 8 50 44 91 80 41 35 76 67 79 70 3 3 48
41 100 85 52 44 97 82 100 85 3 3 50 41 105 85 55 44 102 82 105 86 3 3 23 18
45 34 22 17 42 32 45 35 3 4 23 19 45 35 22 17 42 32 45 35 12 13 286 213 369
270 232 160 565 377 671 438 56 32 194 112 210 122 149 94 584 317 865 444 94
42 184 83 200 91 17 7 71 30 120 50 50 21 103 43 119 51 16 8 34 14 40 14 6 0
22 6 36 13 14 7 48 21 75 31 28 10 64 24 80 31 213 92 1046 353 1279 401 10 2
42 10 70 18 28 8 69 17 91 22 22 4 42 8 45 9 3 0 23 5 45 10 22 4 45 9 50 11
14 4 354 72 390 78 17 2 55 9 85 15 30 6 71 13 90 16 19 3 46 7 60 10 14 2 43
7 65 10 23 3 50 7 61 9 12 2 45 7 75 11 30 3 65 8 79 10 44 8 84 13 150 20 36
4 76 8 90 10 31 4 124 13 215 20 39 4 90 8 115 10 25 3 95 7 155 10 61 3 146
8 190 10 44 3 238 7 430 11 193 3 352 8 354 10 2 2 6 38 8 79 l4 76 -221 -3
c-122 -2 -222 -4 -223 -4z"/>
<path d="M16633 26947 c-3 -5 -7 -48 -8 -95 -1 -48 -6 -117 -10 -154 -4 -38
-5 -68 -2 -68 3 0 61 -16 129 -36 149 -43 257 -73 281 -79 55 -13 366 -111
527 -167 537 -185 1194 -483 1755 -796 44 -24 105 -58 135 -75 49 -27 158 -91
200 -117 8 -5 40 -23 70 -41 369 -214 1119 -753 1481 -1063 20 -17 62 -53 95
-81 78 -66 306 -267 363 -319 24 -23 76 -70 115 -106 109 -100 619 -612 732
-735 116 -126 256 -283 329 -369 28 -32 55 -63 60 -70 6 -6 33 -38 60 -71 28
-33 53 -62 56 -65 3 -3 72 -88 154 -190 81 -102 157 -197 169 -212 11 -14 89
-117 171 -229 375 -506 736 -1063 1015 -1564 18 -33 44 -80 58 -105 63 -112
152 -283 260 -500 107 -214 139 -281 230 -480 47 -102 162 -368 162 -374 0 -2
13 -33 29 -68 64 -142 240 -609 334 -888 81 -241 184 -575 222 -715 9 -33 23
-85 31 -115 52 -187 177 -714 208 -880 3 -14 7 -36 10 -50 10 -46 16 -75 21
-110 3 -19 8 -42 10 -50 4 -12 34 -188 70 -400 9 -53 35 -230 41 -275 2 -22 6
-47 9 -55 2 -8 7 -43 10 -78 4 -35 8 -71 10 -80 1 -9 6 -46 10 -82 4 -36 8
-72 10 -80 1 -8 6 -49 10 -90 4 -41 9 -82 10 -90 1 -8 6 -50 10 -92 3 -43 8
-90 10 -105 2 -16 6 -71 10 -123 4 -52 9 -111 10 -130 12 -132 20 -501 20
-955 0 -467 -4 -643 -21 -830 -2 -27 -6 -78 -9 -112 -5 -72 -13 -159 -20 -225
-3 -27 -7 -72 -10 -100 -7 -68 -15 -144 -20 -188 -3 -19 -7 -55 -10 -80 -2
-25 -7 -61 -10 -80 -3 -19 -7 -53 -10 -75 -2 -22 -7 -56 -9 -75 -3 -19 -8 -52
-11 -72 -12 -84 -17 -121 -46 -298 -17 -102 -33 -198 -35 -215 -3 -16 -19 -95
-35 -175 -16 -80 -31 -154 -33 -165 -8 -43 -78 -330 -82 -336 -2 -3 -5 -19 -8
-35 -3 -16 -24 -95 -47 -174 -22 -80 -42 -152 -44 -160 -25 -116 -229 -716
-344 -1012 -163 -419 -423 -986 -607 -1318 -119 -216 -167 -301 -247 -435
-123 -205 -239 -389 -249 -393 -4 -2 -8 -7 -8 -12 0 -21 -332 -490 -498 -705
-74 -94 -296 -368 -327 -401 -5 -6 -32 -37 -60 -69 -237 -277 -650 -699 -936
-956 -62 -55 -98 -87 -164 -144 -38 -33 -76 -67 -85 -75 -17 -15 -24 -21 -120
-100 -30 -25 -57 -47 -60 -50 -34 -36 -412 -324 -605 -461 -299 -213 -853
-569 -885 -569 -4 0 -10 -4 -12 -8 -1 -5 -39 -28 -83 -53 -44 -24 -88 -48 -97
-54 -99 -59 -281 -154 -518 -273 -514 -257 -921 -426 -1465 -607 -253 -85
-648 -200 -785 -230 -8 -2 -89 -22 -180 -44 -152 -37 -477 -105 -560 -117 -19
-3 -42 -7 -50 -9 -8 -2 -28 -7 -45 -9 -16 -3 -109 -19 -205 -35 -96 -16 -195
-32 -220 -36 -25 -4 -56 -16 -69 -28 -33 -31 -681 -1008 -681 -1028 0 -12 36
-7 260 38 96 19 186 37 200 39 13 3 56 12 95 20 38 9 81 18 94 20 18 4 247 59
414 100 9 2 25 6 35 8 9 3 85 23 167 46 691 190 1464 468 2080 746 28 12 91
40 140 62 220 97 798 385 930 462 17 10 59 34 95 53 84 45 395 222 440 252 19
12 107 66 195 120 444 273 1177 802 1565 1131 14 12 75 63 135 115 61 51 112
95 115 98 3 4 41 37 85 75 44 39 96 85 115 102 280 259 363 338 575 549 220
221 345 352 560 589 11 12 235 268 263 301 10 11 40 47 67 80 28 33 53 62 56
65 3 3 41 50 85 105 43 55 81 102 85 105 3 3 39 48 79 100 40 52 86 111 102
130 16 19 32 40 36 45 279 373 428 583 621 875 79 118 156 234 172 258 16 23
29 45 29 47 0 2 21 37 47 77 27 40 52 81 58 90 41 68 92 153 100 167 35 56 85
143 85 146 0 3 15 28 33 57 150 237 504 929 705 1378 11 25 39 90 62 145 23
55 50 119 61 142 10 24 19 45 19 48 0 3 9 24 20 48 11 23 30 71 44 107 13 36
53 142 89 235 99 262 231 648 298 880 87 297 188 681 223 845 3 14 12 55 20
91 8 36 17 77 20 90 2 13 9 44 15 69 5 25 13 61 16 80 3 19 8 42 10 50 2 8 7
31 10 50 3 19 21 121 40 225 19 105 37 213 40 240 4 28 8 57 10 65 3 8 7 38
10 66 3 28 8 61 10 75 3 13 8 47 10 75 3 28 7 61 10 73 7 39 17 124 30 266 4
44 9 89 11 99 2 11 6 56 9 100 3 45 8 96 10 114 3 17 7 74 11 125 3 50 7 112
9 137 26 305 26 1301 0 1635 -2 28 -7 88 -10 134 -3 47 -8 98 -10 115 -2 17
-7 67 -10 111 -3 44 -8 94 -10 110 -2 17 -7 53 -9 80 -9 86 -16 149 -21 183
-3 18 -8 54 -11 80 -3 26 -7 58 -9 72 -2 14 -9 59 -15 100 -25 168 -30 200
-51 310 -6 30 -12 69 -14 85 -11 73 -80 407 -121 580 -25 105 -47 197 -49 206
-43 193 -185 671 -300 1009 -235 689 -585 1470 -911 2033 -19 32 -34 60 -34
63 0 2 -22 41 -50 85 -27 44 -50 83 -50 85 0 14 -306 491 -420 654 -152 218
-398 546 -495 661 -16 20 -46 56 -65 79 -19 23 -42 51 -50 60 -8 10 -31 37
-49 60 -19 24 -40 48 -46 54 -5 6 -23 27 -39 46 -27 33 -112 130 -171 195
-167 183 -242 261 -435 455 -461 462 -833 788 -1340 1171 -314 238 -796 562
-1050 707 -19 11 -80 46 -135 79 -494 294 -1247 676 -1715 869 -85 36 -164 68
-175 73 -11 5 -40 17 -65 26 -25 10 -67 26 -95 37 -288 110 -736 263 -1030
351 -191 58 -212 64 -345 100 -54 15 -280 75 -310 83 -165 41 -433 103 -470
109 -19 3 -43 8 -52 11 -9 3 -25 6 -35 8 -10 2 -52 11 -93 20 -41 8 -91 18
-110 21 -19 3 -42 8 -50 10 -8 2 -37 7 -65 11 -27 3 -53 8 -56 10 -3 2 -21 6
-40 9 -19 3 -61 11 -94 17 -33 6 -71 12 -85 14 -14 2 -71 12 -128 22 -61 11
-105 15 -109 9z"/>
<path d="M13788 24975 c-2 -2 -86 -6 -188 -10 -102 -3 -205 -8 -230 -10 -25
-2 -85 -6 -135 -10 -49 -3 -103 -8 -120 -10 -16 -3 -59 -7 -95 -10 -36 -3 -76
-7 -90 -10 -14 -2 -50 -7 -80 -9 -30 -3 -64 -7 -75 -9 -11 -3 -42 -8 -70 -11
-102 -15 -121 -17 -150 -22 -70 -11 -316 -55 -390 -70 -44 -8 -91 -18 -105
-20 -68 -12 -446 -99 -525 -121 -49 -13 -98 -26 -109 -28 -34 -8 -300 -86
-431 -126 -715 -223 -1355 -502 -2094 -911 -31 -17 -73 -42 -93 -55 -21 -12
-39 -23 -42 -23 -22 0 -603 -374 -796 -513 -214 -154 -654 -495 -680 -526 -3
-3 -34 -31 -70 -61 -36 -30 -70 -59 -76 -65 -6 -5 -38 -33 -70 -61 -33 -29
-71 -62 -85 -75 -14 -13 -73 -67 -130 -119 -269 -246 -827 -831 -806 -845 1
-1 45 -19 97 -40 52 -21 118 -48 145 -60 169 -76 312 -137 390 -166 50 -19 91
-37 93 -41 3 -7 126 -68 237 -118 205 -91 1269 -631 1530 -776 22 -13 61 -34
86 -48 39 -21 170 -94 404 -226 22 -12 117 -66 211 -121 94 -54 187 -107 206
-118 20 -10 46 -25 59 -33 13 -7 26 -15 29 -18 3 -3 43 -27 90 -54 371 -212
1630 -1017 2055 -1314 98 -69 420 -297 430 -304 15 -12 180 -132 292 -213 220
-158 929 -693 1038 -782 61 -50 344 -257 463 -337 250 -169 531 -318 892 -473
165 -71 424 -164 490 -177 38 -8 82 -15 120 -22 19 -3 51 -16 71 -30 19 -13
73 -37 120 -54 122 -42 586 -173 729 -205 8 -2 60 -15 115 -30 55 -14 107 -28
115 -30 68 -15 281 -68 305 -76 17 -5 77 -20 135 -34 58 -13 172 -40 253 -60
82 -19 158 -37 170 -39 12 -2 83 -18 157 -36 74 -17 146 -33 160 -36 14 -3 33
-7 42 -10 10 -3 29 -7 42 -10 13 -2 83 -18 156 -34 73 -16 142 -32 154 -34 43
-8 263 -58 336 -76 41 -10 101 -21 133 -25 32 -3 67 -10 77 -15 10 -5 42 -15
72 -21 29 -5 105 -21 169 -35 63 -13 124 -26 135 -28 20 -4 80 -18 279 -62
116 -26 289 -62 330 -69 175 -31 276 -55 293 -68 6 -5 12 -6 12 -2 0 4 7 2 15
-5 8 -7 15 -10 15 -7 0 3 15 1 33 -4 17 -6 39 -12 48 -14 25 -5 290 -96 324
-110 17 -7 55 -22 85 -33 271 -98 744 -340 1002 -513 415 -278 863 -676 1134
-1009 16 -19 31 -37 34 -40 6 -6 51 -64 112 -145 59 -78 106 -147 191 -275 38
-58 78 -114 87 -125 23 -25 214 -403 302 -595 107 -234 137 -308 179 -440 22
-69 44 -134 49 -145 5 -11 19 -56 31 -100 12 -44 28 -100 36 -124 47 -148 154
-635 168 -766 4 -32 8 -62 10 -65 2 -3 6 -27 9 -55 3 -27 9 -81 15 -120 5 -38
12 -99 16 -135 3 -36 8 -81 10 -100 2 -19 7 -66 10 -105 13 -137 24 -238 29
-242 2 -3 7 5 11 17 4 12 36 83 72 158 59 123 83 177 88 192 1 3 7 16 13 30
45 98 95 221 103 253 5 21 21 61 35 88 115 228 412 1131 479 1459 2 8 11 44
20 80 9 36 19 76 22 90 2 14 18 88 34 165 32 152 74 367 83 428 3 20 8 54 12
75 3 20 9 62 14 92 5 30 11 73 14 95 3 22 8 56 11 75 5 41 11 86 20 155 3 28
8 64 10 80 2 17 7 62 11 100 3 39 8 78 10 88 1 9 6 63 10 120 3 56 8 110 10
120 3 17 11 182 19 387 5 134 5 670 0 820 -5 152 -14 352 -20 420 -2 30 -7 93
-10 140 -4 47 -8 103 -11 125 -3 22 -7 65 -9 95 -2 30 -6 71 -9 90 -3 19 -8
58 -11 85 -3 28 -12 102 -21 165 -26 194 -32 232 -44 290 -5 25 -21 110 -36
190 -14 80 -28 154 -30 165 -2 11 -13 63 -24 115 -12 52 -23 106 -26 120 -13
67 -124 501 -145 566 -5 17 -11 40 -13 50 -6 26 -101 332 -132 424 -76 221
-169 481 -190 528 -13 29 -24 55 -24 58 0 3 -9 24 -19 47 -10 23 -40 90 -65
149 -140 329 -344 752 -383 795 -13 13 -23 31 -23 40 0 61 -396 722 -672 1120
-193 279 -615 820 -728 933 -3 3 -25 28 -49 55 -195 220 -594 627 -816 831
-246 227 -717 607 -970 784 -28 19 -51 38 -53 42 -2 4 -8 8 -13 8 -13 0 -86
48 -127 83 -115 97 -672 438 -1012 619 -103 55 -483 246 -560 281 -146 68
-404 176 -575 243 -104 41 -201 80 -215 85 -40 18 -477 165 -570 193 -242 72
-294 87 -395 115 -60 16 -130 33 -155 36 -25 3 -58 12 -75 20 -42 19 -364 87
-720 152 -22 4 -75 7 -118 7 -42 1 -77 4 -77 7 0 4 -12 12 -27 18 -25 9 -49
13 -163 26 -80 9 -147 17 -170 20 -14 2 -56 7 -95 10 -38 3 -77 8 -85 10 -15
4 -74 10 -230 21 -47 3 -107 8 -135 10 -56 5 -1173 13 -1177 9z"/>
<path d="M5289 20263 c-20 -5 -198 -275 -378 -575 -371 -618 -710 -1354 -931
-2018 -57 -173 -106 -326 -151 -480 -22 -74 -108 -403 -115 -439 -3 -13 -16
-67 -29 -120 -27 -107 -110 -519 -120 -595 -3 -27 -12 -85 -20 -130 -8 -45
-15 -85 -15 -89 0 -6 8707 -2 9195 3 46 1 49 2 30 16 -19 13 -114 96 -139 120
-6 6 -40 30 -76 54 -36 24 -94 70 -130 100 -36 31 -103 85 -150 120 -47 35
-87 66 -90 69 -11 12 -368 276 -700 518 -272 197 -369 264 -923 634 -246 164
-452 299 -457 299 -6 0 -10 5 -10 10 0 6 -4 10 -9 10 -8 0 -112 65 -331 205
-40 25 -147 92 -188 116 -15 9 -94 57 -175 108 -82 50 -150 91 -152 91 -3 0
-82 47 -185 110 -50 31 -471 274 -550 318 -25 14 -99 55 -165 92 -66 37 -154
85 -195 107 -41 22 -104 56 -140 75 -36 19 -112 60 -170 90 -58 31 -150 79
-205 108 -168 89 -938 473 -1145 570 -219 104 -263 124 -370 170 -41 18 -106
47 -145 65 -38 18 -119 54 -180 80 -60 26 -126 54 -145 62 -19 9 -48 21 -65
28 -16 7 -64 27 -105 45 -92 40 -150 58 -171 53z"/>
<path d="M3426 14623 c-2 -3 -1 -90 9 -668 8 -485 16 -653 40 -850 3 -22 7
-67 10 -100 9 -99 35 -297 56 -435 6 -36 12 -74 13 -85 3 -18 10 -61 22 -135
2 -14 6 -36 9 -50 3 -14 8 -38 10 -55 68 -389 225 -1019 326 -1315 22 -63 51
-151 66 -195 91 -286 418 -1081 454 -1105 9 -6 6526 -3 6707 3 62 2 118 9 124
15 9 9 21 56 34 142 39 254 122 551 233 835 56 143 181 402 269 555 271 475
667 935 1077 1249 54 42 54 42 105 82 132 106 409 270 690 409 268 132 662
270 935 326 160 33 288 53 438 69 289 30 811 25 1053 -10 22 -3 60 -8 85 -11
47 -5 54 -7 139 -24 30 -6 66 -14 80 -16 224 -44 582 -158 825 -262 120 -52
388 -188 480 -245 515 -316 910 -670 1242 -1112 78 -104 253 -360 253 -370 0
-2 26 -47 58 -102 73 -122 196 -372 255 -518 81 -199 178 -517 203 -665 3 -14
9 -38 14 -55 12 -40 28 -128 35 -194 7 -66 15 -101 24 -102 3 -1 664 -2 1469
-3 1295 -1 1462 1 1462 14 0 8 -4 33 -9 55 -5 22 -12 70 -15 107 -15 169 -89
575 -143 778 -42 163 -184 580 -236 695 -106 237 -123 271 -233 465 -62 108
-216 338 -281 420 -158 199 -296 347 -488 525 -45 41 -290 234 -356 280 -294
204 -650 385 -962 489 -125 42 -380 113 -435 122 -20 3 -40 8 -43 10 -3 1 -34
6 -70 10 -35 3 -122 19 -194 35 -71 15 -141 30 -155 33 -14 2 -57 11 -95 20
-39 8 -82 17 -95 20 -14 3 -36 8 -50 11 -14 3 -45 10 -70 15 -25 5 -178 38
-340 74 -162 36 -306 67 -320 70 -54 9 -579 126 -775 171 -33 8 -109 25 -170
39 -139 31 -285 65 -500 117 -200 49 -320 78 -355 85 -14 3 -65 16 -115 29
-49 13 -142 37 -205 54 -63 17 -155 41 -205 55 -49 13 -144 39 -210 56 -113
30 -201 56 -339 102 -33 11 -89 21 -125 24 -149 10 -11705 27 -11715 17z"/>
<path d="M15558 12186 c-1 -2 -70 -6 -153 -10 -82 -4 -166 -9 -185 -11 -19 -2
-59 -7 -88 -10 -46 -5 -140 -21 -237 -40 -149 -29 -371 -99 -535 -168 -535
-223 -961 -552 -1310 -1010 -41 -54 -80 -106 -85 -115 -6 -10 -27 -42 -47 -73
-36 -54 -50 -78 -111 -189 -101 -180 -176 -348 -231 -514 -18 -53 -82 -295
-90 -336 -2 -14 -13 -72 -24 -130 -12 -58 -24 -139 -29 -180 -10 -92 -11 -602
-1 -685 14 -116 29 -211 44 -275 8 -36 22 -94 30 -130 161 -703 617 -1378
1221 -1806 362 -257 839 -459 1248 -528 72 -12 93 -15 150 -21 33 -4 74 -8 90
-10 252 -28 462 -26 705 6 174 23 252 36 296 50 30 9 52 15 104 25 14 3 54 14
90 25 36 11 72 22 80 24 131 33 432 168 615 275 527 310 958 772 1222 1310
117 240 180 412 237 651 68 283 80 391 80 744 0 354 -4 395 -69 705 -19 92
-57 220 -102 345 -81 225 -257 572 -344 677 -22 26 -39 50 -39 54 0 13 -92
136 -178 238 -320 378 -764 703 -1190 870 -287 112 -498 170 -747 206 -44 6
-91 13 -104 15 -13 2 -82 7 -155 10 -72 4 -136 8 -143 10 -6 2 -13 2 -15 1z
m2332 -1251 c0 -8 -4 -15 -10 -15 -5 0 -7 7 -4 15 4 8 8 15 10 15 2 0 4 -7 4
-15z"/>
<path d="M5178 8444 c-3 -2 -26 -5 -52 -5 -26 -1 -49 -5 -51 -9 -7 -11 353
-533 507 -735 21 -27 42 -54 46 -60 7 -10 64 -84 89 -115 33 -42 344 -414 397
-475 107 -122 175 -193 456 -474 366 -367 434 -429 749 -689 25 -21 49 -42 55
-47 14 -13 190 -153 226 -180 76 -56 146 -109 150 -115 3 -3 39 -30 80 -60 41
-30 80 -58 85 -63 42 -32 511 -344 560 -372 28 -16 93 -56 145 -91 52 -34 118
-74 145 -89 28 -15 55 -30 60 -35 32 -23 474 -259 640 -340 307 -150 759 -348
915 -400 14 -5 57 -21 95 -35 121 -46 710 -242 749 -249 6 -1 20 -5 31 -9 11
-3 36 -8 57 -11 20 -2 44 -9 55 -14 10 -6 32 -12 48 -15 17 -3 41 -10 55 -16
14 -6 93 -27 175 -46 214 -52 492 -111 662 -141 16 -3 64 -11 108 -19 78 -14
229 -37 330 -50 65 -8 94 -12 185 -25 41 -6 100 -13 130 -15 30 -3 71 -7 90
-9 19 -3 78 -8 130 -11 245 -15 315 -21 405 -32 80 -10 996 -1 1235 12 94 5
234 15 280 20 19 2 64 7 100 10 104 10 375 41 435 51 17 2 44 6 60 8 51 8 106
16 200 32 50 9 104 18 120 20 17 3 41 7 55 10 14 3 72 13 130 24 116 21 144
27 168 34 9 3 33 8 52 11 19 3 64 13 100 21 36 9 72 17 80 19 38 8 496 128
590 154 241 66 934 315 1143 410 25 12 48 21 51 21 3 0 29 11 58 24 29 13 96
42 148 66 144 64 567 274 729 363 403 221 956 577 1326 856 101 75 386 300
395 311 3 3 45 39 95 80 49 41 97 82 105 90 9 8 54 49 100 90 157 141 255 235
480 460 273 273 384 393 559 600 40 47 80 94 90 105 38 43 253 317 357 455
165 218 391 544 478 688 6 9 -359 12 -1812 12 l-1818 0 -12 -67 c-6 -38 -13
-78 -16 -89 -2 -12 -7 -38 -10 -59 -4 -20 -8 -40 -10 -44 -2 -3 -7 -24 -10
-46 -4 -22 -11 -56 -16 -75 -5 -19 -21 -82 -36 -140 -139 -563 -482 -1213
-879 -1670 -70 -81 -213 -227 -347 -355 -170 -163 -197 -188 -328 -286 -304
-231 -674 -441 -990 -563 -52 -21 -104 -41 -115 -46 -76 -34 -482 -155 -585
-173 -14 -3 -36 -8 -50 -11 -14 -3 -36 -8 -50 -10 -14 -2 -41 -7 -60 -10 -53
-9 -110 -17 -155 -22 -22 -2 -53 -6 -70 -9 -83 -13 -258 -20 -515 -20 -386 0
-504 10 -790 65 -250 47 -308 62 -455 110 -85 28 -159 48 -165 45 -7 -4 -21 2
-33 13 -12 11 -40 25 -62 32 -39 13 -64 24 -283 125 -175 80 -451 237 -631
358 -248 165 -589 472 -815 732 -118 135 -375 486 -457 624 -56 93 -230 460
-294 618 -49 120 -143 411 -170 523 -20 83 -65 308 -71 355 -4 33 -8 63 -10
68 -1 4 -2 12 -3 17 -1 10 -6093 14 -6103 4z"/>
</g>
</svg>
